M48
;DRILL file {KiCad 4.0.6} date Tue Sep  5 11:55:00 2017
;FORMAT={-:-/ absolute / inch / decimal}
FMAT,2
INCH,TZ
T1C0.028
T2C0.032
%
G90
G05
M72
T1
X3.3661Y-2.5157
X3.5748Y-2.2165
X3.6024Y-3.1969
X3.7323Y-3.315
X3.7323Y-3.4331
X3.7756Y-1.7047
X3.7756Y-2.1693
X3.8701Y-1.8307
X3.8858Y-2.
X3.9016Y-2.7362
X3.9173Y-3.0748
X4.0394Y-1.7992
X4.0472Y-2.8976
X4.1024Y-1.6614
X4.1102Y-2.311
X4.1102Y-3.1496
X4.122Y-1.4646
X4.1772Y-1.8386
X4.2637Y-2.5225
X4.3287Y-2.8523
X4.4685Y-3.5512
X4.5695Y-2.572
X4.5827Y-3.5354
X4.5945Y-2.3976
X4.5984Y-2.874
X4.7756Y-2.7402
T2
X3.1862Y-2.2402
X3.2846Y-2.4252
X3.2862Y-2.2402
X3.3831Y-2.6142
X3.3846Y-2.4252
X3.4185Y-2.2795
X3.4831Y-2.6142
X3.4854Y-2.7992
X3.5185Y-2.2795
X3.5854Y-2.7992
X3.5878Y-2.9843
X3.6547Y-2.3228
X3.6862Y-3.1732
X3.6878Y-2.9843
X3.7547Y-2.3228
X3.7862Y-3.1732
X3.8228Y-3.3161
X3.8228Y-3.4161
X3.887Y-1.1811
X3.887Y-1.5433
X3.887Y-1.7244
X3.887Y-1.9055
X3.887Y-2.0866
X3.887Y-2.2717
X3.887Y-2.4528
X3.887Y-2.6339
X3.887Y-2.815
X3.887Y-2.9961
X3.887Y-3.1811
X3.887Y-3.5433
X3.8949Y-3.3622
X3.9291Y-1.3122
X3.9291Y-1.4122
X3.987Y-1.1811
X3.987Y-1.5433
X3.987Y-1.7244
X3.987Y-1.9055
X3.987Y-2.0866
X3.987Y-2.2717
X3.987Y-2.4528
X3.987Y-2.6339
X3.987Y-2.815
X3.987Y-2.9961
X3.987Y-3.1811
X3.987Y-3.5433
X3.9949Y-3.3622
X4.0512Y-1.3161
X4.0512Y-1.4161
X4.0878Y-1.5551
X4.1193Y-2.4016
X4.1878Y-1.5551
X4.1902Y-1.7402
X4.2193Y-2.4016
X4.2886Y-1.9252
X4.2902Y-1.7402
X4.3516Y-2.4449
X4.3886Y-1.9252
X4.3909Y-2.1102
X4.4516Y-2.4449
X4.4894Y-2.2992
X4.4909Y-2.1102
X4.5878Y-2.4843
X4.5894Y-2.2992
X4.6878Y-2.4843
T0
M30
